Coordinates
version=1
nRows=10
nColumns=28
inDegrees=yes

Units are S.I. units (second, meters, Newtons, ...)
Angles are in degrees.

endheader
time	pelvis_tilt	pelvis_list	pelvis_rotation	pelvis_tx	pelvis_ty	pelvis_tz	hip_flexion_r	hip_adduction_r	hip_rotation_r	knee_angle_r	ankle_angle_r	subtalar_angle_r	mtp_angle_r	hip_flexion_l	hip_adduction_l	hip_rotation_l	knee_angle_l	socket_flexion	socket_adduction	socket_rotation	socket_tx	socket_ty	socket_tz	foot_flex	lumbar_extension	lumbar_bending	lumbar_rotation
      0.00000000	      1.32406730	    -14.81186134	    -12.53740906	     -0.75699632	      0.99393800	      0.33764844	    -22.81176773	     11.99354655	     -0.23703742	    -11.96501823	      8.31431207	     11.88203271	     20.38270430	     23.29756878	    -15.56821491	     30.91370666	     -3.20824452	      4.26009376	     -1.37487606	    -22.91819461	      0.00928314	     -0.01085855	      0.01814534	     -1.13661624	    -17.13928372	     13.98455100	     21.64592488
      0.00416667	      1.26412302	    -14.84743993	    -12.54443662	     -0.75162738	      0.99306726	      0.33721427	    -22.93922728	     11.93287640	     -0.17825157	    -12.15515251	      8.30449865	     11.87603548	     20.44042691	     23.15647888	    -15.52379812	     30.93533153	     -3.27452258	      4.33347158	     -1.35413979	    -22.84609583	      0.00989290	     -0.01155849	      0.01803449	     -1.21355366	    -16.98566394	     14.02574718	     21.64984137
      0.00833333	      1.84479638	    -14.32870091	    -13.17966852	     -0.74573545	      0.99373336	      0.33780880	    -23.41398539	     10.78846193	     -0.55036927	    -12.59575626	      5.25759467	     11.43553210	     33.70955066	     22.72675892	    -14.38135390	     26.40601635	     -3.80346164	      4.31353780	     -2.17522611	    -18.90854476	      0.01755350	     -0.01079492	      0.02483356	     -1.72863461	    -17.48457425	     13.02299118	     23.13072431
      0.01250000	      1.49592917	    -14.21596280	    -13.22634776	     -0.73974910	      0.99251445	      0.33735623	    -23.22535801	     10.65819082	     -0.34553460	    -12.80762708	      5.24230467	     11.35654010	     34.58590642	     22.46732666	    -14.31126139	     27.05855574	     -3.61923518	      4.17212714	     -2.20802426	    -19.54352148	      0.01457613	     -0.01186497	      0.02446733	     -2.07195272	    -17.00242965	     13.12878073	     21.93684787
      0.01666667	      1.39911065	    -14.22247404	    -13.02381070	     -0.73385010	      0.99145694	      0.33643030	    -23.21045816	     10.61777328	     -0.71003460	    -13.14678269	      4.59605503	     11.18007980	     35.33944147	     22.31211005	    -14.12405461	     27.59921564	     -3.62510915	      4.17159963	     -2.26501969	    -19.74322360	      0.01419985	     -0.01266291	      0.02463919	     -2.43439531	    -16.78046528	     13.16518586	     22.28917358
      0.02083333	      1.33395859	    -14.25667529	    -12.99152596	     -0.72774029	      0.99055616	      0.33582448	    -23.34902482	     10.55587288	     -0.63084117	    -13.33626562	      4.57086315	     11.18379268	     35.35888872	     22.16725105	    -14.06444654	     27.65219420	     -3.70342709	      4.25688730	     -2.23914955	    -19.69142223	      0.01487816	     -0.01351671	      0.02426195	     -2.52721501	    -16.61038267	     13.22110381	     22.27492673
      0.02500000	      1.17139011	    -14.25347952	    -13.01796028	     -0.72149657	      0.98971644	      0.33519756	    -23.25876243	     10.46266924	     -0.55914089	    -13.78314950	      4.27849350	     11.07142721	     35.55362996	     21.83881489	    -13.94153866	     27.64350347	     -3.61007365	      4.10819185	     -2.40785697	    -19.56465960	      0.01349890	     -0.01457339	      0.02509674	     -3.19419270	    -16.37232439	     13.33576738	     22.10489460
      0.02916667	      1.11455435	    -14.27054343	    -12.97079186	     -0.71520693	      0.98890138	      0.33458660	    -23.38172033	     10.39334152	     -0.46750270	    -14.00548546	      4.22139762	     11.06586088	     35.56964421	     21.68753174	    -13.87404342	     27.70739139	     -3.69647293	      4.20708721	     -2.36514675	    -19.49695197	      0.01423408	     -0.01545491	      0.02455341	     -3.26075663	    -16.19634539	     13.35686154	     22.09345157
      0.03333333	      0.95163607	    -14.14812063	    -13.00387695	     -0.70891952	      0.98820550	      0.33400416	    -23.16454590	     10.18547904	     -0.48408124	    -14.61857258	      3.59989447	     10.76433412	     35.75498699	     21.38798926	    -13.63038360	     27.63263380	     -3.62426085	      4.08305030	     -2.52253526	    -19.35947895	      0.01299954	     -0.01630032	      0.02538939	     -3.85576372	    -15.94319237	     13.30704822	     21.93237682
      0.03750000	      0.90675649	    -14.15144067	    -12.92972883	     -0.70249403	      0.98752495	      0.33335130	    -23.27771501	     10.11606571	     -0.37683269	    -14.85547641	      3.53235545	     10.75294908	     35.77268838	     21.23198839	    -13.54789398	     27.69094752	     -3.71767823	      4.19395030	     -2.46610857	    -19.29080303	      0.01375924	     -0.01718119	      0.02471383	     -3.90556635	    -15.75135041	     13.31648940	     21.92177705
